<svg xmlns="http://www.w3.org/2000/svg" xmlns:xlink="http://www.w3.org/1999/xlink" width="2000" zoomAndPan="magnify" viewBox="0 0 1500 1499.999933" height="2000" preserveAspectRatio="xMidYMid meet" version="1.0"><defs><clipPath id="92040f4f6b"><path d="M 0 53.4375 L 1500 53.4375 L 1500 1446.9375 L 0 1446.9375 Z M 0 53.4375 " clip-rule="nonzero"/></clipPath></defs><g clip-path="url(#92040f4f6b)"><path fill="currentColor" d="M 1495.269531 683.851562 C 1496.304688 682.433594 1497.15625 680.914062 1497.824219 679.296875 C 1498.496094 677.675781 1498.964844 675.996094 1499.238281 674.265625 C 1499.507812 672.53125 1499.570312 670.792969 1499.425781 669.042969 C 1499.28125 667.296875 1498.9375 665.589844 1498.386719 663.925781 C 1496.792969 659.152344 1491.953125 644.621094 1381.507812 469.113281 C 1379.976562 466.664062 1378.296875 464.324219 1376.46875 462.089844 C 1374.640625 459.855469 1372.679688 457.746094 1370.585938 455.761719 C 1368.488281 453.773438 1366.277344 451.929688 1363.945312 450.226562 C 1361.617188 448.523438 1359.1875 446.972656 1356.660156 445.578125 C 1354.132812 444.183594 1351.527344 442.953125 1348.847656 441.890625 C 1346.164062 440.824219 1343.421875 439.9375 1340.628906 439.21875 C 1337.832031 438.503906 1335 437.96875 1332.136719 437.609375 C 1329.273438 437.253906 1326.398438 437.082031 1323.511719 437.089844 L 1288.835938 437.089844 C 1295.621094 404.300781 1302.453125 365.097656 1299.675781 351.234375 C 1296.539062 335.535156 1280.851562 331.175781 1252.371094 323.261719 C 1233.050781 317.894531 1204.925781 310.84375 1168.773438 302.304688 C 1108.195312 288 1024.019531 269.25 918.582031 246.574219 C 767.375 214.058594 614.796875 182.601562 569.5 173.296875 C 545.480469 68.179688 539.949219 64.027344 532.648438 58.546875 C 524.363281 52.332031 515.300781 50.53125 463.421875 59.375 C 434.269531 64.34375 396.550781 72.007812 357.207031 80.960938 C 201.476562 116.402344 189.65625 130.589844 185.210938 135.929688 C 177.566406 145.101562 174.945312 158.957031 181.820312 209.203125 C 185.523438 236.253906 191.859375 272.386719 200.652344 316.597656 C 210.144531 364.316406 220.519531 411.425781 226.851562 439.550781 L 166.769531 440.078125 C 163.847656 440.113281 160.9375 440.332031 158.039062 440.738281 C 155.144531 441.140625 152.285156 441.730469 149.464844 442.5 C 146.640625 443.269531 143.878906 444.214844 141.179688 445.335938 C 138.476562 446.457031 135.859375 447.742188 133.320312 449.199219 C 130.78125 450.652344 128.347656 452.261719 126.015625 454.027344 C 123.683594 455.789062 121.46875 457.695312 119.378906 459.742188 C 117.289062 461.789062 115.335938 463.957031 113.523438 466.253906 C 111.710938 468.546875 110.046875 470.945312 108.539062 473.453125 C 7.988281 641.757812 3.234375 656.023438 1.671875 660.707031 C 1.089844 662.460938 0.722656 664.257812 0.574219 666.101562 C 0.425781 667.945312 0.5 669.777344 0.792969 671.601562 C 1.085938 673.425781 1.589844 675.191406 2.308594 676.894531 C 3.023438 678.597656 3.933594 680.191406 5.035156 681.675781 C 12.859375 692.234375 24.972656 696.71875 95.984375 696.71875 C 101.957031 696.71875 108.363281 696.6875 115.203125 696.621094 C 113.417969 752.34375 109.015625 898.738281 107.128906 1043.910156 C 105.722656 1151.839844 105.964844 1238.039062 107.839844 1300.109375 C 111 1404.699219 115.804688 1435.496094 141.53125 1438.070312 C 173.804688 1441.296875 468.382812 1438.523438 503.6875 1438.179688 C 513.558594 1438.402344 720.523438 1443.070312 925.261719 1445.414062 C 1003.425781 1446.304688 1071.527344 1446.753906 1128.890625 1446.753906 C 1161.566406 1446.753906 1190.765625 1446.609375 1216.332031 1446.316406 C 1258.378906 1445.839844 1291.082031 1444.953125 1313.53125 1443.683594 C 1345.835938 1441.855469 1367.179688 1440.652344 1370.550781 1420.425781 C 1373.695312 1401.554688 1371.746094 887.433594 1370.925781 699.589844 C 1484.789062 698.195312 1488.554688 693.0625 1495.269531 683.851562 Z M 220.203125 162.910156 C 235.167969 156.367188 281.144531 141.949219 363.796875 123.042969 C 436.277344 106.464844 485.945312 98.097656 506.046875 96.203125 C 517.863281 132.4375 546.359375 261.535156 569.820312 378.871094 C 569.957031 379.550781 570.125 380.226562 570.328125 380.890625 C 570.535156 381.554688 570.769531 382.207031 571.035156 382.851562 C 571.304688 383.492188 571.601562 384.121094 571.929688 384.730469 C 572.257812 385.34375 572.617188 385.941406 573.003906 386.515625 C 573.390625 387.09375 573.808594 387.652344 574.25 388.1875 C 574.691406 388.726562 575.15625 389.238281 575.652344 389.730469 C 576.144531 390.21875 576.660156 390.6875 577.195312 391.125 C 577.734375 391.566406 578.292969 391.980469 578.871094 392.363281 C 579.449219 392.75 580.046875 393.105469 580.660156 393.433594 C 581.273438 393.757812 581.902344 394.054688 582.542969 394.320312 C 583.1875 394.585938 583.839844 394.820312 584.507812 395.019531 C 585.171875 395.222656 585.847656 395.386719 586.527344 395.523438 C 587.210938 395.65625 587.898438 395.757812 588.589844 395.828125 C 589.28125 395.894531 589.976562 395.925781 590.667969 395.925781 C 591.363281 395.925781 592.058594 395.890625 592.75 395.820312 C 593.441406 395.753906 594.128906 395.648438 594.808594 395.511719 C 595.492188 395.375 596.164062 395.207031 596.832031 395.003906 C 597.496094 394.800781 598.148438 394.566406 598.792969 394.300781 C 599.433594 394.035156 600.0625 393.738281 600.671875 393.410156 C 601.285156 393.082031 601.882812 392.722656 602.460938 392.335938 C 603.035156 391.949219 603.59375 391.535156 604.132812 391.09375 C 604.667969 390.652344 605.183594 390.183594 605.675781 389.691406 C 606.164062 389.199219 606.632812 388.6875 607.070312 388.148438 C 607.511719 387.609375 607.925781 387.050781 608.3125 386.472656 C 608.699219 385.894531 609.054688 385.300781 609.382812 384.6875 C 609.710938 384.074219 610.007812 383.445312 610.273438 382.800781 C 610.539062 382.160156 610.773438 381.503906 610.972656 380.839844 C 611.175781 380.175781 611.34375 379.5 611.480469 378.820312 C 611.613281 378.136719 611.714844 377.449219 611.785156 376.757812 C 611.851562 376.066406 611.886719 375.371094 611.886719 374.675781 C 611.886719 373.980469 611.851562 373.289062 611.785156 372.59375 C 611.714844 371.902344 611.613281 371.214844 611.476562 370.535156 C 611.332031 369.808594 596.785156 297.128906 580.847656 224.203125 C 580.445312 222.359375 580.050781 220.558594 579.65625 218.757812 C 826.550781 269.484375 1189.46875 346.933594 1257.433594 368.890625 C 1255.808594 383.828125 1250.894531 410.988281 1245.390625 437.089844 L 507.039062 437.089844 C 506.976562 437.089844 506.914062 437.089844 506.851562 437.089844 L 270.285156 439.167969 C 237.09375 294.601562 219.566406 190.308594 220.203125 162.910156 Z M 137.945312 652.625 C 135.089844 652.519531 132.328125 652.976562 129.652344 653.988281 C 99.683594 654.40625 71.375 654.40625 52.710938 653.414062 C 66.945312 627.574219 95.886719 577.464844 145.003906 495.253906 C 146.15625 493.339844 147.53125 491.601562 149.128906 490.042969 C 150.722656 488.480469 152.488281 487.144531 154.425781 486.035156 C 156.363281 484.921875 158.410156 484.074219 160.5625 483.488281 C 162.714844 482.902344 164.910156 482.59375 167.140625 482.566406 L 249.894531 481.839844 C 251.082031 482.046875 252.28125 482.152344 253.488281 482.152344 C 254.761719 482.140625 256.023438 482.015625 257.273438 481.777344 L 468.238281 479.925781 C 419.421875 556.347656 368.261719 631.507812 349.542969 651.277344 C 333.464844 649.386719 300.132812 649.828125 219.0625 651.996094 C 197.3125 652.578125 170.550781 653.292969 144.089844 653.761719 C 142.097656 653.078125 140.050781 652.699219 137.945312 652.625 Z M 1329.027344 1400.144531 C 1246.121094 1408.464844 810.890625 1402.515625 525.09375 1396.15625 L 528.277344 609.609375 C 528.28125 608.914062 528.25 608.222656 528.183594 607.527344 C 528.117188 606.835938 528.019531 606.148438 527.882812 605.464844 C 527.75 604.785156 527.585938 604.109375 527.386719 603.445312 C 527.183594 602.777344 526.953125 602.121094 526.691406 601.480469 C 526.425781 600.835938 526.132812 600.207031 525.804688 599.59375 C 525.480469 598.976562 525.125 598.378906 524.742188 597.800781 C 524.355469 597.222656 523.945312 596.664062 523.503906 596.121094 C 523.066406 595.582031 522.601562 595.066406 522.113281 594.574219 C 521.621094 594.082031 521.109375 593.613281 520.574219 593.167969 C 520.039062 592.726562 519.480469 592.308594 518.90625 591.921875 C 518.328125 591.53125 517.734375 591.171875 517.121094 590.84375 C 516.507812 590.511719 515.882812 590.214844 515.242188 589.945312 C 514.601562 589.675781 513.945312 589.441406 513.28125 589.234375 C 512.617188 589.03125 511.945312 588.859375 511.265625 588.722656 C 510.582031 588.582031 509.894531 588.480469 509.203125 588.40625 C 508.511719 588.335938 507.820312 588.300781 507.125 588.296875 C 506.429688 588.292969 505.734375 588.324219 505.042969 588.390625 C 504.351562 588.457031 503.664062 588.554688 502.980469 588.6875 C 502.296875 588.820312 501.625 588.988281 500.957031 589.1875 C 500.292969 589.386719 499.636719 589.617188 498.992188 589.878906 C 498.351562 590.144531 497.71875 590.4375 497.105469 590.761719 C 496.492188 591.085938 495.894531 591.441406 495.3125 591.824219 C 494.734375 592.210938 494.175781 592.621094 493.636719 593.058594 C 493.097656 593.5 492.578125 593.964844 492.085938 594.453125 C 491.59375 594.941406 491.125 595.453125 490.679688 595.992188 C 490.234375 596.527344 489.820312 597.082031 489.429688 597.660156 C 489.042969 598.234375 488.683594 598.828125 488.351562 599.441406 C 488.019531 600.050781 487.722656 600.679688 487.453125 601.320312 C 487.183594 601.960938 486.945312 602.613281 486.742188 603.277344 C 486.535156 603.945312 486.363281 604.617188 486.226562 605.296875 C 486.085938 605.980469 485.980469 606.667969 485.910156 607.359375 C 485.835938 608.050781 485.800781 608.742188 485.796875 609.4375 L 482.609375 1395.878906 C 389.878906 1396.710938 208.320312 1397.902344 157.246094 1396.363281 C 152.886719 1373.570312 145.902344 1294.5625 149.925781 1021.460938 C 151.96875 882.710938 156.082031 747.125 157.730469 695.96875 C 176.128906 695.601562 196.832031 695.101562 220.199219 694.476562 C 269.808594 693.148438 331.160156 691.503906 344.828125 693.503906 C 346.960938 694.433594 349.183594 695.027344 351.5 695.28125 C 353.8125 695.539062 356.109375 695.445312 358.394531 695.003906 C 369.21875 692.992188 379.441406 691.09375 455.785156 576.65625 C 475.207031 547.542969 494.023438 518.378906 507.132812 497.855469 C 520.59375 518.714844 540.050781 548.566406 560.117188 578.355469 C 638.269531 694.367188 648.507812 696.242188 659.351562 698.226562 C 661.402344 698.613281 663.464844 698.722656 665.542969 698.550781 C 667.621094 698.378906 669.640625 697.9375 671.597656 697.21875 C 693.5625 694.566406 837.871094 696.136719 977.539062 697.65625 C 1118.703125 699.195312 1220.519531 699.980469 1294.226562 699.980469 C 1306.382812 699.980469 1317.765625 699.960938 1328.441406 699.917969 C 1329.566406 957.980469 1330.496094 1322.40625 1329.027344 1400.144531 Z M 978 655.167969 C 865.949219 653.945312 793.574219 653.300781 746.382812 653.300781 C 702.691406 653.300781 680.59375 653.851562 668.601562 655.015625 C 649.976562 635.902344 596.65625 558.332031 545.839844 479.582031 L 1262.445312 479.582031 L 1262.527344 479.589844 L 1262.578125 479.582031 L 1323.511719 479.582031 C 1325.714844 479.578125 1327.882812 479.847656 1330.015625 480.390625 C 1332.148438 480.9375 1334.183594 481.742188 1336.109375 482.808594 C 1338.039062 483.871094 1339.804688 485.160156 1341.402344 486.675781 C 1343.003906 488.1875 1344.386719 489.878906 1345.554688 491.746094 C 1398.582031 576.015625 1430.089844 627.804688 1445.828125 654.929688 C 1369.214844 659.425781 1138.117188 656.914062 978 655.167969 Z M 978 655.167969 " fill-opacity="1" fill-rule="nonzero"/></g><path fill="currentColor" d="M 1008.023438 771.011719 C 924.46875 739.789062 830.070312 804.851562 826.089844 807.640625 C 825.519531 808.039062 824.972656 808.464844 824.441406 808.917969 C 823.914062 809.371094 823.410156 809.847656 822.929688 810.351562 C 822.449219 810.855469 821.992188 811.378906 821.5625 811.925781 C 821.132812 812.472656 820.730469 813.039062 820.359375 813.628906 C 819.984375 814.214844 819.640625 814.820312 819.324219 815.4375 C 819.011719 816.058594 818.726562 816.695312 818.476562 817.34375 C 818.222656 817.992188 818.003906 818.652344 817.816406 819.320312 C 817.628906 819.992188 817.472656 820.667969 817.351562 821.355469 C 817.230469 822.039062 817.144531 822.730469 817.09375 823.421875 C 817.039062 824.117188 817.019531 824.8125 817.035156 825.507812 C 817.050781 826.203125 817.097656 826.898438 817.183594 827.585938 C 817.265625 828.277344 817.382812 828.964844 817.53125 829.644531 C 817.683594 830.324219 817.867188 830.992188 818.082031 831.65625 C 818.300781 832.316406 818.546875 832.964844 818.828125 833.601562 C 819.109375 834.238281 819.417969 834.859375 819.761719 835.46875 C 820.101562 836.074219 820.472656 836.660156 820.871094 837.230469 C 821.269531 837.800781 821.695312 838.351562 822.148438 838.878906 C 822.601562 839.40625 823.078125 839.914062 823.582031 840.394531 C 824.082031 840.875 824.609375 841.332031 825.15625 841.761719 C 825.703125 842.191406 826.269531 842.59375 826.855469 842.964844 C 827.445312 843.339844 828.046875 843.683594 828.667969 844 C 829.289062 844.3125 829.921875 844.597656 830.570312 844.847656 C 831.21875 845.101562 831.878906 845.320312 832.546875 845.507812 C 833.21875 845.695312 833.894531 845.851562 834.582031 845.972656 C 835.265625 846.09375 835.957031 846.179688 836.648438 846.234375 C 837.34375 846.285156 838.039062 846.304688 838.734375 846.289062 C 839.429688 846.273438 840.121094 846.226562 840.8125 846.140625 C 841.503906 846.058594 842.1875 845.941406 842.867188 845.792969 C 843.546875 845.640625 844.21875 845.457031 844.878906 845.242188 C 845.539062 845.023438 846.1875 844.777344 846.824219 844.496094 C 847.460938 844.214844 848.085938 843.90625 848.691406 843.5625 C 849.296875 843.222656 849.886719 842.851562 850.453125 842.453125 C 872.460938 827.042969 940.992188 791.320312 993.15625 810.820312 C 1027.105469 823.507812 1051.375 858.167969 1065.289062 913.835938 C 1075.398438 954.28125 1073.148438 982.828125 1058.601562 998.675781 C 1030.371094 1029.429688 953.246094 1017.003906 907.175781 1009.578125 C 869.261719 1003.46875 850.226562 1000.402344 837.707031 1012.195312 C 836.304688 1013.515625 835.070312 1014.980469 834.007812 1016.585938 C 832.941406 1018.195312 832.078125 1019.902344 831.40625 1021.707031 C 830.738281 1023.515625 830.285156 1025.375 830.050781 1027.289062 C 829.8125 1029.203125 829.796875 1031.117188 830 1033.03125 C 833.117188 1064.199219 836.3125 1143.558594 836.347656 1144.355469 C 836.375 1145.03125 836.433594 1145.707031 836.523438 1146.378906 C 836.617188 1147.050781 836.738281 1147.714844 836.894531 1148.375 C 837.050781 1149.035156 837.234375 1149.6875 837.453125 1150.328125 C 837.671875 1150.96875 837.917969 1151.601562 838.195312 1152.21875 C 838.472656 1152.835938 838.78125 1153.441406 839.117188 1154.027344 C 839.453125 1154.617188 839.816406 1155.1875 840.207031 1155.742188 C 840.59375 1156.296875 841.011719 1156.832031 841.453125 1157.347656 C 841.894531 1157.859375 842.359375 1158.351562 842.847656 1158.820312 C 843.335938 1159.292969 843.847656 1159.738281 844.378906 1160.15625 C 844.90625 1160.578125 845.457031 1160.972656 846.027344 1161.34375 C 846.597656 1161.710938 847.179688 1162.050781 847.78125 1162.363281 C 848.382812 1162.675781 849 1162.957031 849.628906 1163.210938 C 850.253906 1163.464844 850.894531 1163.6875 851.542969 1163.878906 C 852.195312 1164.074219 852.851562 1164.234375 853.515625 1164.363281 C 854.183594 1164.492188 854.851562 1164.589844 855.527344 1164.652344 C 856.199219 1164.71875 856.878906 1164.753906 857.554688 1164.753906 C 857.84375 1164.753906 858.128906 1164.746094 858.421875 1164.734375 C 859.117188 1164.707031 859.808594 1164.644531 860.496094 1164.550781 C 861.183594 1164.453125 861.867188 1164.324219 862.542969 1164.160156 C 863.21875 1164 863.886719 1163.800781 864.542969 1163.574219 C 865.203125 1163.34375 865.847656 1163.085938 866.476562 1162.792969 C 867.109375 1162.5 867.722656 1162.179688 868.324219 1161.828125 C 868.925781 1161.476562 869.503906 1161.09375 870.066406 1160.683594 C 870.628906 1160.277344 871.171875 1159.839844 871.691406 1159.378906 C 872.210938 1158.914062 872.707031 1158.425781 873.179688 1157.917969 C 873.648438 1157.40625 874.097656 1156.871094 874.515625 1156.316406 C 874.933594 1155.761719 875.324219 1155.1875 875.6875 1154.59375 C 876.050781 1154 876.386719 1153.390625 876.6875 1152.761719 C 876.992188 1152.136719 877.261719 1151.496094 877.503906 1150.84375 C 877.742188 1150.191406 877.953125 1149.527344 878.125 1148.855469 C 878.300781 1148.179688 878.441406 1147.5 878.550781 1146.8125 C 878.660156 1146.125 878.734375 1145.433594 878.773438 1144.742188 C 878.816406 1144.046875 878.820312 1143.351562 878.792969 1142.65625 C 878.683594 1139.878906 876.449219 1084.46875 873.820312 1047.539062 C 881.761719 1048.523438 891.691406 1050.125 900.417969 1051.53125 C 958.46875 1060.882812 1046.195312 1075.023438 1089.894531 1027.414062 C 1114.707031 1000.386719 1120.292969 958.703125 1106.503906 903.53125 C 1088.996094 833.476562 1055.863281 788.890625 1008.023438 771.011719 Z M 1008.023438 771.011719 " fill-opacity="1" fill-rule="nonzero"/><path fill="currentColor" d="M 860.785156 1205.894531 C 860.089844 1205.894531 859.394531 1205.925781 858.703125 1205.996094 C 858.011719 1206.0625 857.324219 1206.164062 856.640625 1206.300781 C 855.957031 1206.4375 855.285156 1206.605469 854.617188 1206.808594 C 853.953125 1207.011719 853.296875 1207.242188 852.65625 1207.511719 C 852.011719 1207.777344 851.386719 1208.074219 850.769531 1208.402344 C 850.15625 1208.730469 849.5625 1209.085938 848.984375 1209.472656 C 848.40625 1209.859375 847.847656 1210.273438 847.308594 1210.714844 C 846.769531 1211.15625 846.257812 1211.625 845.765625 1212.117188 C 845.273438 1212.609375 844.804688 1213.121094 844.363281 1213.660156 C 843.921875 1214.199219 843.507812 1214.757812 843.121094 1215.335938 C 842.738281 1215.914062 842.378906 1216.511719 842.050781 1217.125 C 841.722656 1217.738281 841.425781 1218.367188 841.160156 1219.007812 C 840.894531 1219.652344 840.660156 1220.304688 840.457031 1220.972656 C 840.253906 1221.636719 840.085938 1222.3125 839.953125 1222.996094 C 839.816406 1223.675781 839.714844 1224.363281 839.644531 1225.058594 C 839.578125 1225.75 839.542969 1226.445312 839.542969 1227.140625 L 839.542969 1265.742188 C 839.542969 1266.4375 839.578125 1267.132812 839.644531 1267.824219 C 839.714844 1268.515625 839.816406 1269.203125 839.953125 1269.886719 C 840.085938 1270.570312 840.257812 1271.242188 840.457031 1271.910156 C 840.660156 1272.574219 840.894531 1273.230469 841.160156 1273.871094 C 841.425781 1274.515625 841.722656 1275.144531 842.050781 1275.757812 C 842.378906 1276.371094 842.738281 1276.96875 843.125 1277.546875 C 843.507812 1278.125 843.921875 1278.683594 844.363281 1279.222656 C 844.804688 1279.757812 845.273438 1280.273438 845.765625 1280.765625 C 846.257812 1281.257812 846.773438 1281.726562 847.308594 1282.167969 C 847.847656 1282.609375 848.40625 1283.023438 848.984375 1283.410156 C 849.5625 1283.796875 850.15625 1284.152344 850.773438 1284.480469 C 851.386719 1284.808594 852.011719 1285.105469 852.65625 1285.371094 C 853.296875 1285.636719 853.953125 1285.871094 854.617188 1286.074219 C 855.285156 1286.277344 855.957031 1286.445312 856.640625 1286.582031 C 857.324219 1286.71875 858.011719 1286.820312 858.703125 1286.886719 C 859.394531 1286.957031 860.089844 1286.988281 860.785156 1286.988281 C 861.480469 1286.988281 862.175781 1286.957031 862.867188 1286.886719 C 863.558594 1286.820312 864.246094 1286.71875 864.929688 1286.582031 C 865.609375 1286.445312 866.285156 1286.277344 866.949219 1286.074219 C 867.617188 1285.871094 868.269531 1285.636719 868.914062 1285.371094 C 869.554688 1285.105469 870.183594 1284.808594 870.796875 1284.480469 C 871.410156 1284.152344 872.007812 1283.796875 872.585938 1283.410156 C 873.164062 1283.023438 873.722656 1282.609375 874.261719 1282.167969 C 874.796875 1281.726562 875.3125 1281.257812 875.804688 1280.765625 C 876.296875 1280.273438 876.761719 1279.757812 877.203125 1279.222656 C 877.644531 1278.683594 878.058594 1278.125 878.445312 1277.546875 C 878.832031 1276.96875 879.191406 1276.371094 879.519531 1275.757812 C 879.847656 1275.144531 880.144531 1274.515625 880.410156 1273.875 C 880.675781 1273.230469 880.910156 1272.574219 881.113281 1271.910156 C 881.3125 1271.242188 881.480469 1270.570312 881.617188 1269.886719 C 881.753906 1269.203125 881.855469 1268.515625 881.921875 1267.824219 C 881.992188 1267.132812 882.027344 1266.4375 882.027344 1265.742188 L 882.027344 1227.140625 C 882.027344 1226.445312 881.992188 1225.75 881.925781 1225.058594 C 881.855469 1224.363281 881.753906 1223.675781 881.617188 1222.996094 C 881.480469 1222.3125 881.3125 1221.636719 881.113281 1220.972656 C 880.910156 1220.304688 880.675781 1219.652344 880.410156 1219.007812 C 880.144531 1218.367188 879.847656 1217.738281 879.519531 1217.125 C 879.191406 1216.511719 878.832031 1215.914062 878.445312 1215.335938 C 878.058594 1214.757812 877.644531 1214.199219 877.203125 1213.660156 C 876.761719 1213.121094 876.296875 1212.609375 875.804688 1212.117188 C 875.3125 1211.625 874.796875 1211.15625 874.261719 1210.714844 C 873.722656 1210.273438 873.164062 1209.859375 872.585938 1209.472656 C 872.007812 1209.085938 871.410156 1208.730469 870.796875 1208.402344 C 870.183594 1208.074219 869.554688 1207.777344 868.914062 1207.511719 C 868.269531 1207.242188 867.617188 1207.011719 866.949219 1206.808594 C 866.285156 1206.605469 865.609375 1206.4375 864.929688 1206.300781 C 864.246094 1206.164062 863.558594 1206.0625 862.867188 1205.996094 C 862.175781 1205.925781 861.480469 1205.894531 860.785156 1205.894531 Z M 860.785156 1205.894531 " fill-opacity="1" fill-rule="nonzero"/></svg>